<svg width="35" height="35" viewBox="0 0 35 35" fill="none" xmlns="http://www.w3.org/2000/svg">
<path id="LinkedIn" d="M0 4.06566C0 2.88718 0.394155 1.91496 1.18243 1.14899C1.97071 0.382985 2.99551 0 4.25676 0C5.49551 0 6.49774 0.377081 7.26351 1.13131C8.05179 1.90909 8.44595 2.92254 8.44595 4.17172C8.44595 5.30303 8.06307 6.24577 7.2973 7C6.50902 7.77778 5.47297 8.16667 4.18919 8.16667H4.15541C2.91666 8.16667 1.91443 7.77778 1.14865 7C0.382872 6.22222 0 5.2441 0 4.06566ZM0.439189 35V11.3838H7.93919V35H0.439189ZM12.0946 35H19.5946V21.8131C19.5946 20.9882 19.6847 20.3518 19.8649 19.904C20.1802 19.1027 20.6588 18.4251 21.3007 17.8712C21.9426 17.3173 22.7477 17.0404 23.7162 17.0404C26.2387 17.0404 27.5 18.8199 27.5 22.3788V35H35V21.4596C35 17.9714 34.2117 15.3258 32.6351 13.5227C31.0585 11.7197 28.9752 10.8182 26.3851 10.8182C23.4797 10.8182 21.2162 12.1263 19.5946 14.7424V14.8131H19.5608L19.5946 14.7424V11.3838H12.0946C12.1396 12.138 12.1622 14.4831 12.1622 18.4192C12.1622 22.3552 12.1396 27.8821 12.0946 35Z" fill="black"/>
</svg>
